# xmcd
#
# Track frame offsets:
#	150
#	15915
#	31902
#	45374
#	63235
#	80808
#	99025
#	113477
#	131867
#	144407
#	162001
#	180314
#	198367
#
# Disc length: 2903 seconds
#
# Revision: 0
# Processed by: cddbd v1.5.1PL0 Copyright (c) Steve Scherf et al.
# Submitted via: dBpowerAMP V4.0
#
DISCID=930b550d
DTITLE=CARTA DE BARALHO - UM JOGO DE SEDUÇÃO
DYEAR=2004
DGENRE=FORRO
TTITLE0=TODO AMOR QUE EU TE DEI
TTITLE1=CHEGA DE BRINCAR
TTITLE2=FALSO AMOR
TTITLE3=BRINCANDO DE AMOR
TTITLE4=ESTOU APAIXONADO POR ALGUEM
TTITLE5=AMOR PROIBIDO
TTITLE6=VAQUEIRO APAIXONADO
TTITLE7=VOLTA LOGO PRA MIM
TTITLE8=SO QUERO SEU AMOR
TTITLE9=CONQUISTA
TTITLE10=LABIOS DE MEL
TTITLE11=RECOMEÇO
TTITLE12=VOCÊ BRINCOU COM FOGO
EXTD=
EXTT0=
EXTT1=
EXTT2=
EXTT3=
EXTT4=
EXTT5=
EXTT6=
EXTT7=
EXTT8=
EXTT9=
EXTT10=
EXTT11=
EXTT12=
PLAYORDER=
